<svg width="299" height="206" viewBox="0 0 299 206" fill="none" xmlns="http://www.w3.org/2000/svg">
<path d="M81.8061 40.4622L78.4301 43.2653L81.5329 46.3681L106.61 71.445L109.066 73.9008L111.842 71.8138C117.23 67.7628 121.268 65.142 125.321 63.3683C129.254 61.6473 133.381 60.6473 139.006 60.0872C152.753 60.7431 162.24 63.515 168.988 68.9187C175.672 74.2705 180.271 82.6924 183.176 96.0016V182.716V186.716H187.176H224.792H228.792V182.716H224.792C228.792 182.716 228.792 182.716 228.792 182.715V182.713V182.702V182.661L228.792 182.498L228.791 181.863C228.791 181.627 228.791 181.343 228.79 181.014C228.79 180.569 228.789 180.042 228.788 179.44C228.784 177.344 228.777 174.328 228.762 170.652C228.733 163.299 228.674 153.297 228.556 142.706C228.322 121.627 227.853 97.9033 226.891 88.28C225.867 78.0421 220.399 62.8942 209.576 49.1065C198.687 35.2334 182.238 22.5629 159.166 17.684L159.042 17.6579L158.918 17.6397C143.97 15.4495 131.872 14.9986 119.794 18.3178C107.729 21.6338 96.0976 28.5959 81.8061 40.4622Z" fill="#333333" stroke="white" stroke-width="8"/>
<circle cx="108.184" cy="136.324" r="50.3922" fill="#4E79BC" stroke="white" stroke-width="8"/>
</svg>
