<svg width="25" height="25" viewBox="0 0 25 25" fill="none" xmlns="http://www.w3.org/2000/svg">
<path d="M22.6382 10.411H21.8328V10.3695H12.8343V14.3689H18.4849C17.6605 16.697 15.4454 18.3682 12.8343 18.3682C9.52135 18.3682 6.83529 15.6822 6.83529 12.3692C6.83529 9.05626 9.52135 6.3702 12.8343 6.3702C14.3636 6.3702 15.7548 6.9471 16.8142 7.88945L19.6422 5.06141C17.8565 3.39718 15.4679 2.37085 12.8343 2.37085C7.31271 2.37085 2.83594 6.84762 2.83594 12.3692C2.83594 17.8908 7.31271 22.3676 12.8343 22.3676C18.3559 22.3676 22.8327 17.8908 22.8327 12.3692C22.8327 11.6988 22.7637 11.0444 22.6382 10.411Z" fill="#FFC107"/>
<path d="M3.98535 7.71548L7.27032 10.1246C8.15917 7.92395 10.3118 6.3702 12.8309 6.3702C14.3602 6.3702 15.7514 6.9471 16.8108 7.88945L19.6388 5.06141C17.8531 3.39718 15.4645 2.37085 12.8309 2.37085C8.99054 2.37085 5.66008 4.539 3.98535 7.71548Z" fill="#FF3D00"/>
<path d="M12.8327 22.3697C15.4153 22.3697 17.7619 21.3813 19.5361 19.7741L16.4416 17.1555C15.404 17.9446 14.1362 18.3713 12.8327 18.3703C10.2321 18.3703 8.02397 16.7121 7.19211 14.3979L3.93164 16.91C5.58637 20.148 8.94682 22.3697 12.8327 22.3697Z" fill="#4CAF50"/>
<path d="M22.635 10.4128H21.8296V10.3713H12.8311V14.3707H18.4816C18.0873 15.4787 17.377 16.4469 16.4385 17.1557L16.44 17.1547L19.5345 19.7733C19.3155 19.9723 22.8294 17.3702 22.8294 12.371C22.8294 11.7006 22.7604 11.0462 22.635 10.4128Z" fill="#1976D2"/>
</svg>
