<svg width="20" height="23" viewBox="0 0 20 23" fill="none" xmlns="http://www.w3.org/2000/svg">
<path d="M18.537 22.6125H3.35487C2.49204 22.6125 1.66455 22.2698 1.05443 21.6597C0.444321 21.0495 0.101563 20.2221 0.101562 19.3592V4.17713C0.101563 3.3143 0.444321 2.48681 1.05443 1.8767C1.66455 1.26659 2.49204 0.923828 3.35487 0.923828H18.537C18.8246 0.923828 19.1004 1.03808 19.3038 1.24145C19.5071 1.44482 19.6214 1.72065 19.6214 2.00826V21.5281C19.6214 21.8157 19.5071 22.0915 19.3038 22.2949C19.1004 22.4983 18.8246 22.6125 18.537 22.6125ZM17.4525 20.4437V18.2748H3.35487C3.06726 18.2748 2.79143 18.389 2.58806 18.5924C2.38469 18.7958 2.27043 19.0716 2.27043 19.3592C2.27043 19.6468 2.38469 19.9227 2.58806 20.126C2.79143 20.3294 3.06726 20.4437 3.35487 20.4437H17.4525ZM2.27043 16.2903C2.60986 16.171 2.97532 16.1059 3.35487 16.1059H17.4525V3.0927H3.35487C3.06726 3.0927 2.79143 3.20695 2.58806 3.41032C2.38469 3.61369 2.27043 3.88952 2.27043 4.17713V16.2903ZM9.86148 9.59931C9.28626 9.59931 8.7346 9.3708 8.32786 8.96406C7.92111 8.55732 7.69261 8.00566 7.69261 7.43044C7.69261 6.85522 7.92111 6.30356 8.32786 5.89682C8.7346 5.49007 9.28626 5.26157 9.86148 5.26157C10.4367 5.26157 10.9884 5.49007 11.3951 5.89682C11.8018 6.30356 12.0303 6.85522 12.0303 7.43044C12.0303 8.00566 11.8018 8.55732 11.3951 8.96406C10.9884 9.3708 10.4367 9.59931 9.86148 9.59931ZM6.60817 13.937C6.60817 13.0742 6.95093 12.2467 7.56104 11.6366C8.17116 11.0265 8.99865 10.6837 9.86148 10.6837C10.7243 10.6837 11.5518 11.0265 12.1619 11.6366C12.772 12.2467 13.1148 13.0742 13.1148 13.937H6.60817Z" fill="#45494F"/>
</svg>
