<svg width="32" height="33" viewBox="0 0 32 33" fill="none" xmlns="http://www.w3.org/2000/svg">
<path d="M30.6673 8.2382V2.90487C30.6673 2.55124 30.5268 2.2121 30.2768 1.96206C30.0267 1.71201 29.6876 1.57153 29.334 1.57153H2.66732C2.3137 1.57153 1.97456 1.71201 1.72451 1.96206C1.47446 2.2121 1.33398 2.55124 1.33398 2.90487V8.2382H30.6673Z" fill="#AF8669"/>
<path d="M1.33398 10.9048V29.5715C1.33398 29.9251 1.47446 30.2642 1.72451 30.5143C1.97456 30.7643 2.3137 30.9048 2.66732 30.9048H9.33398V10.9048H1.33398Z" fill="#698CC3" fill-opacity="0.5"/>
<path d="M12 30.9048H29.3333C29.687 30.9048 30.0261 30.7643 30.2761 30.5143C30.5262 30.2642 30.6667 29.9251 30.6667 29.5715V10.9048H12V30.9048Z" fill="#4E79BC"/>
</svg>
