<svg width="32" height="33" viewBox="0 0 32 33" fill="none" xmlns="http://www.w3.org/2000/svg">
<g clip-path="url(#clip0_2436_4557)">
<path d="M27.9993 32.2384H15.9993C15.6457 32.2384 15.3066 32.0979 15.0565 31.8478C14.8065 31.5978 14.666 31.2587 14.666 30.905V28.2384C14.666 27.8847 14.8065 27.5456 15.0565 27.2956C15.3066 27.0455 15.6457 26.905 15.9993 26.905H27.9993C28.353 26.905 28.6921 27.0455 28.9422 27.2956C29.1922 27.5456 29.3327 27.8847 29.3327 28.2384V30.905C29.3327 31.2587 29.1922 31.5978 28.9422 31.8478C28.6921 32.0979 28.353 32.2384 27.9993 32.2384Z" fill="#698CC3" fill-opacity="0.5"/>
<path d="M27.9993 0.238281H3.99935C3.64573 0.238281 3.30659 0.378756 3.05654 0.628805C2.80649 0.878853 2.66602 1.21799 2.66602 1.57161V4.23828C2.66602 4.5919 2.80649 4.93104 3.05654 5.18109C3.30659 5.43114 3.64573 5.57161 3.99935 5.57161H27.9993C28.353 5.57161 28.6921 5.43114 28.9422 5.18109C29.1922 4.93104 29.3327 4.5919 29.3327 4.23828V1.57161C29.3327 1.21799 29.1922 0.878853 28.9422 0.628805C28.6921 0.378756 28.353 0.238281 27.9993 0.238281Z" fill="#AF8669"/>
<path d="M27.9993 8.23828H3.99935C3.64573 8.23828 3.30659 8.37876 3.05654 8.6288C2.80649 8.87885 2.66602 9.21799 2.66602 9.57161V22.9049C2.66602 23.2586 2.80649 23.5977 3.05654 23.8478C3.30659 24.0978 3.64573 24.2383 3.99935 24.2383H27.9993C28.353 24.2383 28.6921 24.0978 28.9422 23.8478C29.1922 23.5977 29.3327 23.2586 29.3327 22.9049V9.57161C29.3327 9.21799 29.1922 8.87885 28.9422 8.6288C28.6921 8.37876 28.353 8.23828 27.9993 8.23828Z" fill="#4E79BC"/>
</g>
<defs>
<clipPath id="clip0_2436_4557">
<rect width="32" height="32" fill="white" transform="translate(0 0.238281)"/>
</clipPath>
</defs>
</svg>
