<svg width="32" height="33" viewBox="0 0 32 33" fill="none" xmlns="http://www.w3.org/2000/svg">
<path d="M6.66732 1.57153H2.66732C2.3137 1.57153 1.97456 1.71201 1.72451 1.96206C1.47446 2.2121 1.33398 2.55124 1.33398 2.90487V29.5715C1.33398 29.9252 1.47446 30.2643 1.72451 30.5143C1.97456 30.7644 2.3137 30.9049 2.66732 30.9049H6.66732V1.57153Z" fill="#698CC3" fill-opacity="0.5"/>
<path d="M9.33398 30.9049H22.6673V1.57153H9.33398V30.9049ZM16.0007 25.5715C15.647 25.5715 15.3079 25.4311 15.0578 25.181C14.8078 24.931 14.6673 24.5918 14.6673 24.2382C14.6673 23.8846 14.8078 23.5454 15.0578 23.2954C15.3079 23.0453 15.647 22.9049 16.0007 22.9049C16.3543 22.9049 16.6934 23.0453 16.9435 23.2954C17.1935 23.5454 17.334 23.8846 17.334 24.2382C17.334 24.5918 17.1935 24.931 16.9435 25.181C16.6934 25.4311 16.3543 25.5715 16.0007 25.5715ZM16.0007 6.90487C16.3543 6.90487 16.6934 7.04534 16.9435 7.29539C17.1935 7.54544 17.334 7.88458 17.334 8.2382C17.334 8.59182 17.1935 8.93096 16.9435 9.18101C16.6934 9.43106 16.3543 9.57153 16.0007 9.57153C15.647 9.57153 15.3079 9.43106 15.0578 9.18101C14.8078 8.93096 14.6673 8.59182 14.6673 8.2382C14.6673 7.88458 14.8078 7.54544 15.0578 7.29539C15.3079 7.04534 15.647 6.90487 16.0007 6.90487ZM16.0007 14.9049C16.3543 14.9049 16.6934 15.0453 16.9435 15.2954C17.1935 15.5454 17.334 15.8846 17.334 16.2382C17.334 16.5918 17.1935 16.931 16.9435 17.181C16.6934 17.4311 16.3543 17.5715 16.0007 17.5715C15.647 17.5715 15.3079 17.4311 15.0578 17.181C14.8078 16.931 14.6673 16.5918 14.6673 16.2382C14.6673 15.8846 14.8078 15.5454 15.0578 15.2954C15.3079 15.0453 15.647 14.9049 16.0007 14.9049Z" fill="#4E79BC"/>
<path d="M29.334 1.57153H25.334V30.9049H29.334C29.6876 30.9049 30.0267 30.7644 30.2768 30.5143C30.5268 30.2643 30.6673 29.9252 30.6673 29.5715V2.90487C30.6673 2.55124 30.5268 2.2121 30.2768 1.96206C30.0267 1.71201 29.6876 1.57153 29.334 1.57153Z" fill="#AF8669"/>
</svg>
