<svg width="32" height="33" viewBox="0 0 32 33" fill="none" xmlns="http://www.w3.org/2000/svg">
<g clip-path="url(#clip0_2436_7044)">
<path d="M24 13.5716H32L28 8.23828L24 13.5716ZM24 18.9049H32L28 24.2383L24 18.9049Z" fill="#698CC3" fill-opacity="0.5"/>
<path d="M1.33333 0.238281H9.33333V32.2383H1.33333C0.979711 32.2383 0.640572 32.0978 0.390523 31.8478C0.140475 31.5977 0 31.2586 0 30.9049V1.57161C0 1.21799 0.140475 0.878853 0.390523 0.628805C0.640572 0.378756 0.979711 0.238281 1.33333 0.238281Z" fill="#4E79BC"/>
<path d="M12 0.238281H20C20.3536 0.238281 20.6928 0.378756 20.9428 0.628805C21.1929 0.878853 21.3333 1.21799 21.3333 1.57161V30.9049C21.3333 31.2586 21.1929 31.5977 20.9428 31.8478C20.6928 32.0978 20.3536 32.2383 20 32.2383H12V0.238281Z" fill="#AF8669"/>
</g>
<defs>
<clipPath id="clip0_2436_7044">
<rect width="32" height="32" fill="white" transform="translate(0 0.238281)"/>
</clipPath>
</defs>
</svg>
