<svg width="670" height="244" viewBox="0 0 670 244" fill="none" xmlns="http://www.w3.org/2000/svg">
<path d="M311.436 106.053C312.872 101.492 313.59 96.3814 313.59 90.7218V46.1211C313.59 42.9957 313.21 39.7013 312.45 36.238C311.774 32.7747 310.676 29.3537 309.155 25.9748C307.635 22.5115 305.65 19.2171 303.2 16.0917C300.835 12.9663 297.921 10.221 294.458 7.8558C291.079 5.49061 287.151 3.59002 282.674 2.15401C278.197 0.718003 273.129 0 267.469 0H208.044C205.003 0 201.708 0.380119 198.161 1.14036C194.697 1.81613 191.234 2.91425 187.771 4.43472C184.392 5.9552 181.14 7.94027 178.014 10.3899C174.889 12.7551 172.101 15.6694 169.652 19.1327C167.287 22.5115 165.386 26.4394 163.95 30.9164C162.514 35.3933 161.796 40.4616 161.796 46.1211V147.97H194.74V46.1211C194.74 41.8131 195.88 38.561 198.161 36.3647C200.441 34.084 203.82 32.9437 208.297 32.9437H267.469C271.777 32.9437 275.029 34.0418 277.225 36.238C279.506 38.4343 280.647 41.8131 280.647 46.3745V90.7218C280.647 95.0298 279.548 98.3242 277.352 100.605C275.156 102.886 271.862 104.026 267.469 104.026H208.044V136.97H267.469C270.594 136.97 273.889 136.632 277.352 135.956C280.815 135.196 284.237 134.055 287.615 132.535C291.079 131.014 294.373 129.072 297.498 126.706C300.624 124.257 303.369 121.343 305.734 117.964C308.1 114.5 310 110.53 311.436 106.053Z" fill="black"/>
<path d="M486.671 60.1856C488.276 54.8639 489.079 49.9223 489.079 45.3609C489.079 37.0827 487.558 30.0717 484.517 24.3276C481.476 18.4991 477.675 13.811 473.114 10.2632C468.637 6.63097 463.737 4.01237 458.416 2.40742C453.178 0.802474 448.279 0 443.718 0H384.292C376.014 0 368.961 1.52048 363.132 4.56143C357.388 7.60239 352.7 11.4036 349.068 15.965C345.52 20.442 342.944 25.3413 341.339 30.663C339.734 35.9002 338.931 40.7995 338.931 45.3609V91.6087C338.931 99.8869 340.452 106.94 343.493 112.769C346.534 118.513 350.293 123.201 354.77 126.833C359.331 130.381 364.231 132.957 369.468 134.562C374.789 136.167 379.731 136.97 384.292 136.97H536.847V105.546H384.546C380.491 105.546 377.07 104.322 374.283 101.872C371.579 99.4223 370.228 96.0012 370.228 91.6087V45.6143C370.228 41.5597 371.453 38.1809 373.902 35.4778C376.352 32.6903 379.815 31.2965 384.292 31.2965H443.718C447.603 31.2965 450.898 32.5213 453.601 34.971C456.388 37.4206 457.782 40.7995 457.782 45.1075C457.782 49.1621 456.557 52.5832 454.108 55.3707C451.658 58.0738 448.195 59.4253 443.718 59.4253H287.615V90.7218H443.718C451.996 90.7218 459.007 89.2013 464.751 86.1604C470.579 83.1194 475.268 79.3605 478.815 74.8835C482.448 70.3221 485.066 65.4228 486.671 60.1856Z" fill="black"/>
<path d="M603.241 64.6203L662.413 0H617.052L580.434 39.6591L544.069 0H498.962L557.88 64.3669L491.359 136.97H536.847L580.687 89.2013L624.528 136.97H669.889L603.241 64.6203Z" fill="black"/>
<path d="M16.3479 223.034C12.6999 223.034 9.96391 222.071 8.13992 220.146C6.3666 218.22 5.47994 215.18 5.47994 211.026V174.47H10.0399V183.97H21.9719V188.074H10.0399V211.026C10.0399 214.218 10.6226 216.346 11.7879 217.41C13.0039 218.423 14.4986 218.93 16.2719 218.93C17.3359 218.93 18.2225 218.879 18.9319 218.778C19.6412 218.626 20.4265 218.296 21.2879 217.79L23.3398 221.286C21.4652 222.451 19.1345 223.034 16.3479 223.034ZM54.3857 204.566C54.4364 208.112 55.2977 211.355 56.9697 214.294C58.6417 217.232 61.9856 218.702 67.0016 218.702C69.1803 218.702 71.1816 218.423 73.0056 217.866C74.8802 217.308 76.9069 216.396 79.0856 215.13L81.0615 218.322C79.0349 219.69 76.7802 220.779 74.2976 221.59C71.8149 222.4 69.2816 222.806 66.6976 222.806C61.3776 222.806 57.223 221.108 54.2337 217.714C51.295 214.268 49.8257 209.759 49.8257 204.186C49.8257 200.588 50.4844 197.219 51.8017 194.078C53.119 190.886 55.0697 188.302 57.6537 186.326C60.2377 184.35 63.2776 183.362 66.7736 183.362C69.7123 183.362 72.3723 184.071 74.7536 185.49C77.1856 186.858 79.0856 188.758 80.4536 191.19C81.8722 193.571 82.5815 196.231 82.5815 199.17C82.5815 199.98 82.5562 200.715 82.5055 201.374C82.4549 201.982 82.4042 202.514 82.3535 202.97L82.2015 204.566H54.3857ZM77.9456 200.462C77.9962 200.107 78.0216 199.6 78.0216 198.942C78.0216 196.814 77.5149 194.888 76.5016 193.166C75.4882 191.392 74.1203 189.999 72.3976 188.986C70.6749 187.972 68.7749 187.466 66.6976 187.466C63.607 187.466 60.947 188.606 58.7177 190.886C56.539 193.115 55.171 196.307 54.6137 200.462H77.9456ZM130.265 222.502C124.742 222.502 120.385 220.804 117.193 217.41C114.052 214.015 112.481 209.379 112.481 203.502C112.481 199.448 113.241 195.876 114.761 192.786C116.281 189.644 118.434 187.238 121.221 185.566C124.007 183.843 127.225 182.982 130.873 182.982C132.899 182.982 134.774 183.362 136.497 184.122C138.27 184.831 140.094 185.996 141.969 187.618L138.929 190.354C137.763 189.188 136.547 188.352 135.281 187.846C134.065 187.339 132.595 187.086 130.873 187.086C126.667 187.086 123.298 188.606 120.765 191.646C118.282 194.635 117.041 198.663 117.041 203.73C117.041 208.391 118.206 212.014 120.537 214.598C122.918 217.131 126.287 218.398 130.645 218.398C134.343 218.398 138.346 217.207 142.653 214.826L144.629 218.018C142.551 219.436 140.246 220.551 137.713 221.362C135.23 222.122 132.747 222.502 130.265 222.502ZM179.465 166.794V189.518C181.036 187.339 182.86 185.743 184.937 184.73C187.014 183.716 189.421 183.21 192.157 183.21C196.261 183.21 199.326 184.299 201.353 186.478C203.43 188.606 204.469 191.646 204.469 195.598V221.97H199.909V196.434C199.909 193.647 199.225 191.468 197.857 189.898C196.489 188.276 194.437 187.466 191.701 187.466C189.269 187.466 187.09 188.099 185.165 189.366C183.24 190.632 181.34 192.532 179.465 195.066V221.97H174.905V166.794H179.465ZM239.128 195.142C239.128 191.24 238.089 188.251 236.012 186.174L238.9 183.362C241.129 184.932 242.548 187.212 243.156 190.202C244.828 187.82 246.702 186.072 248.78 184.958C250.857 183.792 253.365 183.21 256.304 183.21C260.256 183.21 263.321 184.274 265.5 186.402C267.729 188.53 268.818 191.595 268.768 195.598L268.54 221.97H264.132L264.208 196.434C264.208 190.354 261.446 187.314 255.924 187.314C253.34 187.314 251.136 187.947 249.312 189.214C247.538 190.43 245.664 192.38 243.688 195.066V221.97H239.128V195.142ZM318.921 222.73C315.324 222.73 312.107 221.894 309.269 220.222C306.483 218.55 304.304 216.219 302.733 213.23C301.163 210.24 300.377 206.846 300.377 203.046C300.377 199.246 301.163 195.851 302.733 192.862C304.355 189.822 306.559 187.466 309.345 185.794C312.183 184.071 315.4 183.21 318.997 183.21C322.544 183.21 325.711 184.071 328.497 185.794C331.335 187.466 333.539 189.796 335.109 192.786C336.731 195.775 337.541 199.17 337.541 202.97C337.541 206.77 336.731 210.164 335.109 213.154C333.539 216.143 331.335 218.499 328.497 220.222C325.711 221.894 322.519 222.73 318.921 222.73ZM318.997 218.626C323.203 218.626 326.572 217.182 329.105 214.294C331.689 211.406 332.981 207.631 332.981 202.97C332.981 199.879 332.399 197.168 331.233 194.838C330.068 192.456 328.421 190.607 326.293 189.29C324.165 187.972 321.733 187.314 318.997 187.314C316.211 187.314 313.753 187.972 311.625 189.29C309.497 190.607 307.851 192.482 306.685 194.914C305.52 197.295 304.937 200.006 304.937 203.046C304.937 206.086 305.52 208.796 306.685 211.178C307.851 213.508 309.497 215.332 311.625 216.65C313.753 217.967 316.211 218.626 318.997 218.626ZM369.921 166.794H374.481V221.97H369.921V166.794ZM425.38 222.73C421.783 222.73 418.566 221.894 415.728 220.222C412.942 218.55 410.763 216.219 409.192 213.23C407.622 210.24 406.836 206.846 406.836 203.046C406.836 199.246 407.622 195.851 409.192 192.862C410.814 189.822 413.018 187.466 415.804 185.794C418.642 184.071 421.859 183.21 425.456 183.21C429.003 183.21 432.169 184.071 434.956 185.794C437.793 187.466 439.997 189.796 441.568 192.786C443.189 195.775 444 199.17 444 202.97C444 206.77 443.189 210.164 441.568 213.154C439.997 216.143 437.793 218.499 434.956 220.222C432.169 221.894 428.977 222.73 425.38 222.73ZM425.456 218.626C429.661 218.626 433.031 217.182 435.564 214.294C438.148 211.406 439.44 207.631 439.44 202.97C439.44 199.879 438.857 197.168 437.692 194.838C436.527 192.456 434.88 190.607 432.752 189.29C430.624 187.972 428.192 187.314 425.456 187.314C422.67 187.314 420.212 187.972 418.084 189.29C415.956 190.607 414.31 192.482 413.144 194.914C411.979 197.295 411.396 200.006 411.396 203.046C411.396 206.086 411.979 208.796 413.144 211.178C414.31 213.508 415.956 215.332 418.084 216.65C420.212 217.967 422.67 218.626 425.456 218.626ZM492.644 241.502C480.991 241.502 475.164 236.714 475.164 227.138C475.164 226.327 475.291 224.832 475.544 222.654L475.772 220.602C474.759 219.791 473.923 218.778 473.264 217.562C472.656 216.346 472.352 215.054 472.352 213.686C472.352 212.267 472.732 210.798 473.492 209.278C474.252 207.758 475.544 206.592 477.368 205.782C477.976 205.528 478.584 205.351 479.192 205.25C479.851 205.148 480.737 205.072 481.852 205.022C479.927 202.691 478.964 199.93 478.964 196.738C478.964 193.951 479.597 191.544 480.864 189.518C482.181 187.44 483.929 185.844 486.108 184.73C488.287 183.615 490.693 183.058 493.328 183.058C495.304 183.058 497.077 183.412 498.648 184.122H511.188V187.998L504.272 187.542C506.552 189.974 507.692 192.988 507.692 196.586C507.692 200.74 506.349 204.008 503.664 206.39C501.029 208.72 497.584 209.886 493.328 209.886C490.541 209.886 488.084 209.354 485.956 208.29C484.841 208.188 483.853 208.138 482.992 208.138C481.877 208.138 481.016 208.214 480.408 208.366C479.547 208.619 478.711 209.202 477.9 210.114C477.14 211.026 476.76 212.191 476.76 213.61C476.76 215.231 477.343 216.371 478.508 217.03C479.673 217.688 481.396 218.018 483.676 218.018L488.844 217.866L495.304 217.714C500.472 217.714 504.551 218.651 507.54 220.526C510.58 222.4 512.1 225.238 512.1 229.038C512.1 233.344 510.225 236.486 506.476 238.462C502.777 240.488 498.167 241.502 492.644 241.502ZM493.48 205.934C496.621 205.934 499.003 205.072 500.624 203.35C502.296 201.627 503.132 199.398 503.132 196.662C503.132 193.723 502.22 191.418 500.396 189.746C498.623 188.023 496.241 187.162 493.252 187.162C490.212 187.162 487.831 188.023 486.108 189.746C484.385 191.468 483.524 193.774 483.524 196.662C483.524 199.651 484.436 201.956 486.26 203.578C488.084 205.148 490.491 205.934 493.48 205.934ZM492.644 237.398C502.575 237.398 507.54 234.662 507.54 229.19C507.54 224.275 503.36 221.818 495 221.818C492.669 221.818 490.592 221.868 488.768 221.97L485.424 222.046C482.941 222.046 480.991 221.919 479.572 221.666L479.724 226.682C479.825 229.468 480.332 231.622 481.244 233.142C482.156 234.712 483.499 235.802 485.272 236.41C487.096 237.068 489.553 237.398 492.644 237.398ZM542.375 183.894H546.935V221.97H542.375V183.894ZM544.503 179.03C543.642 179.03 542.882 178.726 542.223 178.118C541.615 177.459 541.311 176.699 541.311 175.838C541.311 174.926 541.615 174.166 542.223 173.558C542.882 172.899 543.642 172.57 544.503 172.57C545.415 172.57 546.175 172.899 546.783 173.558C547.442 174.166 547.771 174.926 547.771 175.838C547.771 176.699 547.442 177.459 546.783 178.118C546.175 178.726 545.415 179.03 544.503 179.03ZM583.622 204.566C583.673 208.112 584.534 211.355 586.206 214.294C587.878 217.232 591.222 218.702 596.238 218.702C598.417 218.702 600.418 218.423 602.242 217.866C604.117 217.308 606.143 216.396 608.322 215.13L610.298 218.322C608.271 219.69 606.017 220.779 603.534 221.59C601.051 222.4 598.518 222.806 595.934 222.806C590.614 222.806 586.459 221.108 583.47 217.714C580.531 214.268 579.062 209.759 579.062 204.186C579.062 200.588 579.721 197.219 581.038 194.078C582.355 190.886 584.306 188.302 586.89 186.326C589.474 184.35 592.514 183.362 596.01 183.362C598.949 183.362 601.609 184.071 603.99 185.49C606.422 186.858 608.322 188.758 609.69 191.19C611.109 193.571 611.818 196.231 611.818 199.17C611.818 199.98 611.793 200.715 611.742 201.374C611.691 201.982 611.641 202.514 611.59 202.97L611.438 204.566H583.622ZM607.182 200.462C607.233 200.107 607.258 199.6 607.258 198.942C607.258 196.814 606.751 194.888 605.738 193.166C604.725 191.392 603.357 189.999 601.634 188.986C599.911 187.972 598.011 187.466 595.934 187.466C592.843 187.466 590.183 188.606 587.954 190.886C585.775 193.115 584.407 196.307 583.85 200.462H607.182ZM654.275 222.882C649.158 222.882 644.395 220.906 639.987 216.954L642.495 213.914C644.42 215.484 646.32 216.7 648.195 217.562C650.12 218.372 652.172 218.778 654.351 218.778C657.087 218.778 659.215 218.144 660.735 216.878C662.306 215.56 663.091 213.787 663.091 211.558C663.091 210.139 662.736 208.999 662.027 208.138C661.368 207.226 660.456 206.491 659.291 205.934C658.176 205.376 656.15 204.49 653.211 203.274C650.526 202.159 648.448 201.196 646.979 200.386C645.51 199.575 644.344 198.587 643.483 197.422C642.622 196.206 642.191 194.686 642.191 192.862C642.191 189.872 643.255 187.491 645.383 185.718C647.511 183.894 650.348 182.982 653.895 182.982C655.719 182.982 657.518 183.235 659.291 183.742C661.115 184.248 662.66 184.983 663.927 185.946L662.027 189.214C659.696 187.795 657.062 187.086 654.123 187.086C651.792 187.086 649.994 187.542 648.727 188.454C647.46 189.366 646.827 190.658 646.827 192.33C646.827 193.596 647.156 194.635 647.815 195.446C648.524 196.256 649.411 196.94 650.475 197.498C651.59 198.004 653.414 198.764 655.947 199.778C658.835 200.943 661.064 202.007 662.635 202.97C664.256 203.882 665.498 205.022 666.359 206.39C667.271 207.707 667.727 209.354 667.727 211.33C667.727 214.826 666.486 217.638 664.003 219.766C661.571 221.843 658.328 222.882 654.275 222.882Z" fill="black"/>
<path d="M19.6611 26.5677L41.5073 48.4138C51.0288 41.2559 56.6028 38.5074 67.1765 37.4908C92.0343 38.6195 104 47.4695 109.23 71.8985V147.814H142C142 147.814 142 82.2754 140.361 65.8908C138.723 49.5061 122.463 15.5632 84.1073 7.4523C58.4103 3.68711 44.2072 6.18697 19.6611 26.5677Z" fill="black"/>
<circle cx="40.4154" cy="107.399" r="40.4154" fill="#4E79BC"/>
</svg>
