<svg width="593" height="131" viewBox="0 0 593 131" fill="none" xmlns="http://www.w3.org/2000/svg">
<path d="M275.66 93.7971C276.93 89.7628 277.565 85.2429 277.565 80.2374V40.7911C277.565 38.0269 277.229 35.1132 276.557 32.0501C275.959 28.9871 274.988 25.9614 273.643 22.973C272.298 19.9099 270.543 16.9963 268.376 14.2321C266.284 11.4678 263.707 9.03978 260.644 6.94793C257.655 4.85608 254.182 3.17513 250.222 1.90508C246.262 0.635026 241.78 0 236.774 0H184.217C181.527 0 178.613 0.33619 175.476 1.00857C172.413 1.60624 169.35 2.57746 166.286 3.92222C163.298 5.26698 160.422 7.02264 157.658 9.1892C154.893 11.2811 152.428 13.8585 150.261 16.9216C148.17 19.9099 146.489 23.3839 145.219 27.3435C143.949 31.303 143.313 35.7856 143.313 40.7911V130.869H172.45V40.7911C172.45 36.9809 173.459 34.1046 175.476 32.1622C177.493 30.1451 180.481 29.1365 184.441 29.1365H236.774C240.585 29.1365 243.461 30.1077 245.403 32.0501C247.42 33.9926 248.429 36.9809 248.429 41.0152V80.2374C248.429 84.0476 247.458 86.9612 245.515 88.9783C243.573 90.9955 240.659 92.0041 236.774 92.0041H184.217V121.141H236.774C239.539 121.141 242.452 120.842 245.515 120.244C248.578 119.572 251.604 118.563 254.592 117.218C257.656 115.874 260.569 114.155 263.333 112.063C266.098 109.897 268.526 107.319 270.618 104.331C272.709 101.268 274.39 97.7567 275.66 93.7971Z" fill="white"/>
<path d="M430.644 53.2301C432.064 48.5235 432.773 44.153 432.773 40.1187C432.773 32.7972 431.428 26.5964 428.739 21.5162C426.049 16.3613 422.688 12.2149 418.653 9.07714C414.694 5.86465 410.361 3.54867 405.654 2.1292C401.022 0.709735 396.689 0 392.655 0H340.097C332.775 0 326.537 1.34476 321.382 4.03428C316.302 6.7238 312.156 10.0857 308.943 14.12C305.805 18.0796 303.527 22.4127 302.107 27.1193C300.688 31.7513 299.978 36.0844 299.978 40.1187V81.0218C299.978 88.3433 301.323 94.5815 304.012 99.7364C306.702 104.817 310.026 108.963 313.986 112.175C318.02 115.313 322.353 117.592 326.985 119.011C331.692 120.431 336.063 121.141 340.097 121.141H475.021V93.3488H340.321C336.735 93.3488 333.709 92.2655 331.244 90.099C328.853 87.9324 327.658 84.9067 327.658 81.0218V40.3428C327.658 36.7568 328.741 33.7684 330.908 31.3778C333.074 28.9124 336.137 27.6797 340.097 27.6797H392.655C396.091 27.6797 399.005 28.7629 401.396 30.9295C403.861 33.0961 405.094 36.0844 405.094 39.8946C405.094 43.4806 404.01 46.5063 401.844 48.9717C399.677 51.3624 396.614 52.5577 392.655 52.5577H254.592V80.2374H392.655C399.976 80.2374 406.177 78.8926 411.257 76.2031C416.412 73.5136 420.558 70.1891 423.696 66.2295C426.909 62.1952 429.225 57.8621 430.644 53.2301Z" fill="white"/>
<path d="M533.742 57.1523L586.076 0H545.957L513.571 35.0758L481.409 0H441.514L493.624 56.9282L434.79 121.141H475.021L513.795 78.8926L552.569 121.141H592.688L533.742 57.1523Z" fill="white"/>
<path d="M17.6064 23.4975L36.9279 42.8189C45.3491 36.4882 50.2789 34.0574 59.6306 33.1582C81.6157 34.1565 92.1986 41.9838 96.8245 63.5895V130.732H125.807C125.807 130.732 125.807 72.7672 124.358 58.2761C122.908 43.785 108.528 13.7647 74.6048 6.59119C51.8775 3.26113 39.3158 5.4721 17.6064 23.4975Z" fill="white"/>
<circle cx="35.9615" cy="94.9869" r="35.7447" fill="#4E79BC"/>
</svg>
